<?xml version="1.0" standalone="no"?>
<!DOCTYPE svg PUBLIC "-//W3C//DTD SVG 20010904//EN"
 "http://www.w3.org/TR/2001/REC-SVG-20010904/DTD/svg10.dtd">
<svg version="1.0" xmlns="http://www.w3.org/2000/svg"
 width="827.000000pt" height="405.000000pt" viewBox="0 0 827.000000 405.000000"
 preserveAspectRatio="xMidYMid meet">

<g transform="translate(0.000000,405.000000) scale(0.100000,-0.100000)"
fill="#000000" stroke="none">
<path d="M2015 3855 c-337 -55 -849 -394 -1246 -827 -190 -207 -274 -322 -350
-482 -80 -167 -99 -301 -60 -427 63 -201 238 -318 656 -440 393 -114 442 -147
386 -257 -47 -92 -179 -197 -373 -295 -205 -105 -389 -166 -510 -169 -98 -2
-122 21 -121 121 1 80 26 149 69 194 34 34 38 57 10 57 -16 0 -80 -68 -99
-105 -40 -79 -39 -210 1 -265 11 -14 39 -36 63 -50 147 -83 619 42 924 245
231 154 268 314 99 437 -116 85 -253 144 -583 252 -283 92 -336 125 -362 219
-22 82 12 241 81 378 134 264 442 610 780 876 183 143 509 331 655 376 73 23
163 39 175 32 19 -12 10 -56 -26 -128 -82 -164 -311 -460 -782 -1012 -235
-276 -298 -343 -329 -356 -40 -15 -23 -69 22 -69 72 0 317 238 680 660 486
566 617 789 546 928 -51 99 -147 133 -306 107z"/>
<path d="M5490 3717 c-456 -140 -1019 -842 -1264 -1578 -78 -236 -126 -484
-126 -656 0 -96 28 -247 60 -332 41 -105 105 -178 198 -223 60 -30 75 -33 157
-33 72 0 102 5 150 24 110 45 249 142 420 295 129 116 571 553 734 726 l127
135 0 -130 c-1 -121 1 -134 24 -180 34 -64 78 -92 120 -75 41 17 147 131 275
296 60 76 105 128 101 114 -50 -178 -60 -326 -26 -360 11 -11 24 -20 28 -20
18 0 43 39 126 196 146 278 248 440 379 601 28 35 52 61 55 59 2 -3 -3 -29
-12 -59 -24 -84 -21 -202 7 -257 37 -74 151 -132 228 -116 l30 6 -8 -48 c-4
-26 -7 -82 -6 -125 1 -62 6 -88 27 -132 29 -58 75 -95 119 -95 39 0 94 54 131
129 33 64 96 241 96 267 0 23 19 25 77 8 67 -19 160 -14 220 12 55 25 16 31
-55 9 -57 -19 -124 -14 -196 14 l-28 11 8 73 c12 101 10 274 -4 324 -35 120
-128 139 -175 35 -16 -37 -21 -67 -20 -144 l0 -97 -28 -6 c-36 -8 -81 -62
-119 -141 -32 -66 -42 -74 -96 -74 -84 0 -100 38 -88 198 5 64 9 157 9 205 0
81 -2 90 -24 108 -43 35 -66 26 -125 -53 -68 -91 -195 -294 -316 -503 -137
-238 -137 -234 -6 58 85 190 86 195 46 235 -44 45 -90 44 -123 0 -34 -45 -55
-90 -82 -169 -20 -57 -45 -93 -178 -255 -240 -292 -277 -321 -277 -214 0 110
62 328 145 508 29 65 44 109 40 122 -7 23 -64 60 -92 60 -54 0 -110 -88 -158
-245 l-27 -90 -347 -345 c-491 -489 -714 -680 -916 -780 -166 -83 -257 -87
-329 -13 -104 108 -135 426 -71 729 56 268 137 492 276 764 107 210 183 333
317 514 255 342 609 625 784 626 39 0 52 -5 77 -30 37 -37 46 -79 44 -190 -2
-111 -30 -235 -103 -450 -102 -304 -213 -540 -320 -680 -55 -72 -58 -80 -32
-80 66 0 265 339 410 700 123 308 164 540 118 678 -18 52 -70 113 -119 139
-53 27 -178 27 -267 0z m2128 -1252 c2 -77 0 -156 -5 -175 l-9 -35 -20 55
c-24 69 -27 270 -5 309 13 23 14 23 25 5 6 -11 12 -80 14 -159z m-43 -363
c-39 -143 -66 -203 -115 -254 -26 -27 -52 -48 -58 -48 -21 0 -13 82 17 167 27
78 94 205 130 246 15 18 16 18 33 -2 16 -20 15 -26 -7 -109z"/>
<path d="M6269 2767 c-44 -34 -75 -128 -57 -178 19 -55 86 -68 115 -21 9 15
34 46 56 70 28 31 37 50 35 70 -6 52 -106 92 -149 59z"/>
<path d="M3132 2555 c-114 -86 -315 -312 -424 -477 -28 -43 -53 -78 -55 -78
-3 0 32 70 76 155 45 85 81 163 81 174 0 39 -94 91 -139 76 -28 -9 -75 -90
-111 -192 -27 -76 -43 -103 -121 -198 -129 -157 -268 -305 -286 -305 -13 0
-15 9 -10 53 9 92 68 246 174 456 57 113 103 217 103 232 0 30 -14 44 -51 54
-22 6 -31 1 -53 -28 l-27 -35 -30 29 c-18 17 -51 32 -84 40 -47 10 -60 10
-100 -5 -100 -39 -205 -153 -289 -316 -104 -203 -120 -349 -41 -387 43 -21 40
-23 169 137 105 131 266 320 272 320 2 0 -12 -43 -31 -95 -42 -115 -75 -272
-75 -354 0 -74 21 -131 48 -131 44 0 161 112 307 294 42 53 78 96 80 96 1 0 0
-51 -2 -112 -4 -122 5 -161 42 -166 16 -2 29 14 64 85 109 222 292 453 471
596 41 32 76 55 77 50 2 -5 -15 -49 -38 -99 -109 -234 -169 -443 -170 -590 -1
-75 2 -100 18 -126 62 -106 144 -38 379 312 59 88 105 162 102 166 -3 3 -41
-46 -84 -108 -181 -262 -296 -397 -330 -384 -14 6 -16 16 -11 74 6 77 42 181
151 436 109 253 124 320 85 370 -31 39 -66 34 -137 -19z m-892 -140 c11 -13 7
-23 -21 -58 -63 -80 -402 -457 -407 -453 -9 10 30 105 75 181 138 237 303 391
353 330z"/>
<path d="M770 380 c0 -60 4 -100 10 -100 6 0 10 18 10 40 0 36 3 40 25 40 50
0 84 29 85 73 0 23 -43 47 -85 47 l-45 0 0 -100z m84 74 c19 -7 21 -45 4 -62
-7 -7 -25 -12 -40 -12 -26 0 -28 3 -28 40 0 36 3 40 24 40 13 0 31 -3 40 -6z"/>
<path d="M961 387 c-34 -101 -35 -107 -22 -107 5 0 14 14 20 30 9 26 15 30 46
30 31 0 37 -4 46 -30 10 -27 29 -42 29 -23 0 29 -64 193 -75 193 -8 0 -26 -37
-44 -93z m64 6 c6 -31 5 -33 -19 -33 -29 0 -32 11 -15 60 13 36 22 29 34 -27z"/>
<path d="M1142 468 c-7 -7 -12 -25 -12 -40 0 -23 8 -32 51 -53 52 -27 60 -48
27 -69 -13 -8 -26 -7 -50 2 -17 6 -34 9 -37 7 -10 -10 16 -26 53 -32 43 -7 76
16 76 52 0 25 -15 40 -63 64 -20 10 -32 23 -32 36 0 18 6 20 50 18 46 -1 48 0
31 13 -24 17 -78 18 -94 2z"/>
<path d="M1290 470 c0 -5 13 -10 30 -10 l29 0 3 -85 c4 -111 22 -111 26 0 l3
85 29 0 c17 0 30 5 30 10 0 6 -32 10 -75 10 -43 0 -75 -4 -75 -10z"/>
<path d="M1480 470 c0 -5 11 -10 25 -10 25 0 25 -1 25 -80 0 -79 0 -80 -26
-80 -14 0 -23 -4 -19 -10 8 -13 115 -13 115 0 0 6 -9 10 -20 10 -18 0 -20 7
-20 80 0 73 2 80 20 80 11 0 20 5 20 10 0 6 -27 10 -60 10 -33 0 -60 -4 -60
-10z"/>
<path d="M1692 465 c-44 -32 -45 -132 -1 -167 25 -21 67 -23 92 -4 21 16 9 29
-13 15 -43 -27 -90 10 -90 71 0 55 29 84 76 77 35 -6 47 6 18 17 -27 10 -59 7
-82 -9z"/>
<path d="M1873 465 c-30 -21 -44 -75 -32 -120 16 -58 79 -84 122 -51 21 16 9
29 -13 15 -63 -39 -121 63 -74 130 14 20 23 22 55 18 39 -5 53 5 23 17 -27 10
-59 7 -81 -9z"/>
<path d="M2030 380 l0 -100 60 0 c71 0 81 18 13 22 -48 3 -48 3 -48 38 0 33 2
35 38 38 50 4 48 22 -3 22 -38 0 -40 2 -40 30 0 29 1 30 50 30 28 0 50 5 50
10 0 6 -27 10 -60 10 l-60 0 0 -100z"/>
<path d="M2202 385 c3 -97 20 -135 26 -57 4 51 25 56 50 11 28 -50 40 -64 48
-56 4 4 -2 25 -15 47 l-22 39 21 11 c28 15 27 64 -2 84 -12 9 -42 16 -66 16
l-43 0 3 -95z m98 60 c13 -16 5 -55 -13 -55 -7 0 -22 -3 -34 -6 -21 -6 -23 -3
-23 35 0 39 2 41 29 41 16 0 34 -7 41 -15z"/>
<path d="M2380 470 c0 -5 11 -10 25 -10 25 0 25 -1 25 -80 0 -79 0 -80 -26
-80 -14 0 -23 -4 -19 -10 8 -13 115 -13 115 -1 0 5 -10 11 -22 13 -22 3 -23 8
-23 78 0 70 1 75 23 78 46 7 20 22 -38 22 -33 0 -60 -4 -60 -10z"/>
<path d="M2605 468 c-23 -62 -55 -164 -55 -175 0 -25 18 -13 25 17 6 27 10 30
45 30 33 0 39 -4 49 -30 5 -16 15 -30 21 -30 13 0 14 -1 -25 113 -27 81 -48
107 -60 75z m44 -95 c1 -8 -11 -13 -28 -13 -32 0 -32 0 -4 80 3 10 10 3 18
-20 8 -19 14 -41 14 -47z"/>
<path d="M3299 454 c-19 -20 -24 -36 -23 -76 0 -43 5 -55 28 -75 15 -12 36
-23 47 -23 25 0 59 18 59 31 0 6 -7 6 -19 -1 -29 -15 -49 -12 -71 10 -25 25
-27 86 -4 119 14 20 22 22 55 17 38 -6 54 6 23 18 -34 13 -71 5 -95 -20z"/>
<path d="M3507 473 c-15 -26 -58 -175 -54 -186 3 -6 11 3 18 21 12 28 18 32
50 32 32 0 38 -4 48 -30 5 -16 15 -30 22 -30 6 0 9 6 6 13 -2 6 -17 51 -33
100 -25 77 -44 103 -57 80z m37 -85 c6 -26 4 -28 -24 -28 -34 0 -34 2 -8 70
10 24 10 24 18 5 4 -11 10 -32 14 -47z"/>
<path d="M3652 385 c3 -97 20 -135 26 -57 3 42 3 42 43 42 21 0 39 5 39 10 0
6 -18 10 -40 10 -39 0 -40 1 -40 35 0 35 0 35 45 35 25 0 45 5 45 10 0 6 -27
10 -60 10 l-61 0 3 -95z"/>
<path d="M3832 385 c3 -97 20 -135 26 -57 3 42 3 42 43 42 21 0 39 5 39 10 0
6 -18 10 -40 10 -39 0 -40 1 -40 35 0 35 0 35 45 35 25 0 45 5 45 10 0 6 -27
10 -60 10 l-61 0 3 -95z"/>
<path d="M4010 380 l0 -100 60 0 c33 0 60 4 60 10 0 6 -22 10 -50 10 l-50 0 0
40 0 40 40 0 c22 0 40 5 40 10 0 6 -18 10 -40 10 -38 0 -40 2 -40 30 0 29 1
30 50 30 28 0 50 5 50 10 0 6 -27 10 -60 10 l-60 0 0 -100z"/>
<path d="M4160 470 c0 -5 16 -10 35 -10 l35 0 0 -90 c0 -53 4 -90 10 -90 6 0
10 37 10 90 l0 90 35 0 c19 0 35 5 35 10 0 6 -33 10 -80 10 -47 0 -80 -4 -80
-10z"/>
<path d="M4340 470 c0 -5 16 -10 35 -10 l35 0 0 -90 c0 -53 4 -90 10 -90 6 0
10 37 10 90 l0 90 35 0 c19 0 35 5 35 10 0 6 -33 10 -80 10 -47 0 -80 -4 -80
-10z"/>
<path d="M4550 380 l0 -100 60 0 c33 0 60 4 60 10 0 6 -22 10 -50 10 l-50 0 0
40 0 40 40 0 c22 0 40 5 40 10 0 6 -18 10 -40 10 -38 0 -40 2 -40 30 0 29 1
30 50 30 28 0 50 5 50 10 0 6 -27 10 -60 10 l-60 0 0 -100z"/>
<path d="M4720 380 c0 -99 16 -141 22 -58 4 60 28 62 62 3 15 -25 31 -45 36
-45 15 0 12 9 -11 47 l-21 34 21 20 c48 45 12 99 -66 99 l-43 0 0 -100z m99
61 c14 -26 -7 -51 -44 -54 -28 -2 -30 1 -33 36 -3 36 -3 37 32 37 24 0 38 -6
45 -19z"/>
<path d="M4900 470 c0 -5 11 -10 25 -10 26 0 26 0 23 -77 -3 -72 -5 -78 -25
-81 -47 -7 -21 -22 37 -22 58 0 84 15 38 22 -21 3 -23 9 -26 81 -3 77 -3 77
23 77 14 0 25 5 25 10 0 6 -27 10 -60 10 -33 0 -60 -4 -60 -10z"/>
<path d="M5096 393 c-16 -48 -31 -94 -33 -100 -3 -7 0 -13 6 -13 7 0 17 14 22
30 10 26 16 30 48 30 32 0 38 -4 48 -30 10 -26 34 -43 32 -22 -2 31 -68 187
-80 190 -10 2 -23 -22 -43 -85z m53 35 c25 -67 25 -68 -9 -68 -27 0 -31 3 -25
18 3 9 9 29 12 45 7 33 11 34 22 5z"/>
<path d="M5815 455 c-20 -19 -25 -34 -25 -75 0 -41 5 -56 25 -75 25 -26 63
-32 96 -15 14 8 19 21 19 50 0 39 -1 40 -32 39 -30 0 -31 -1 -10 -9 29 -12 30
-56 2 -65 -50 -16 -88 34 -76 100 8 41 36 60 77 51 30 -6 40 8 13 18 -32 12
-66 5 -89 -19z"/>
<path d="M5982 383 l3 -98 54 -3 c30 -2 59 2 64 7 8 8 -4 11 -41 11 l-52 0 0
40 0 40 40 0 c22 0 40 5 40 10 0 6 -18 10 -40 10 -38 0 -40 2 -40 30 0 29 2
30 45 30 25 0 45 5 45 10 0 6 -27 10 -60 10 l-61 0 3 -97z"/>
<path d="M6170 380 l0 -100 60 0 c71 0 81 18 13 22 l-48 3 -3 88 c-4 121 -22
111 -22 -13z"/>
<path d="M6356 393 c-16 -48 -31 -94 -33 -100 -3 -7 0 -13 6 -13 7 0 17 14 22
30 10 26 16 30 49 30 35 0 39 -3 45 -30 7 -30 25 -42 25 -17 0 32 -58 182 -71
185 -10 2 -23 -24 -43 -85z m62 5 c10 -38 10 -38 -19 -38 -33 0 -33 -1 -17 52
13 44 22 40 36 -14z"/>
<path d="M6500 471 c0 -6 15 -11 33 -13 l32 -3 3 -87 c4 -116 22 -114 22 2 l0
90 30 0 c17 0 30 5 30 10 0 6 -32 10 -75 10 -41 0 -75 -4 -75 -9z"/>
<path d="M6702 383 l3 -98 54 -3 c30 -2 59 2 64 7 8 8 -4 11 -41 11 l-52 0 0
40 0 40 40 0 c22 0 40 5 40 10 0 6 -18 10 -40 10 -38 0 -40 2 -40 30 0 29 2
30 45 30 25 0 45 5 45 10 0 6 -27 10 -60 10 l-61 0 3 -97z"/>
<path d="M6880 380 c0 -99 16 -141 22 -58 4 59 26 60 60 3 15 -25 32 -45 38
-45 15 0 12 11 -14 49 l-22 34 23 23 c28 28 29 48 3 74 -14 14 -33 20 -65 20
l-45 0 0 -100z m88 71 c24 -15 10 -54 -22 -62 -39 -11 -46 -5 -46 37 0 30 3
34 28 34 15 0 33 -4 40 -9z"/>
<path d="M7060 471 c0 -5 10 -11 23 -13 21 -3 22 -8 22 -78 0 -70 -1 -75 -22
-78 -47 -7 -21 -22 37 -22 33 0 60 4 60 10 0 6 -11 10 -25 10 -25 0 -25 1 -25
80 0 79 0 80 25 80 14 0 25 5 25 10 0 6 -27 10 -60 10 -33 0 -60 -4 -60 -9z"/>
<path d="M7255 393 c-39 -115 -39 -116 -24 -111 8 3 16 15 19 29 5 20 13 25
47 27 38 3 41 1 46 -27 6 -30 27 -44 27 -18 0 32 -58 182 -71 185 -10 2 -24
-24 -44 -85z m60 5 c7 -36 6 -38 -19 -38 -30 0 -30 0 -14 52 13 44 23 40 33
-14z"/>
<path d="M2920 380 c0 -6 28 -10 65 -10 37 0 65 4 65 10 0 6 -28 10 -65 10
-37 0 -65 -4 -65 -10z"/>
<path d="M5440 380 c0 -6 27 -10 60 -10 33 0 60 4 60 10 0 6 -27 10 -60 10
-33 0 -60 -4 -60 -10z"/>
</g>
</svg>
